<svg height="512" viewBox="0 0 64 64" width="512" xmlns="http://www.w3.org/2000/svg"><path d="m17 41h30v4h-30z" fill="#412872"/><path d="m40 55-8 6-8-6a15.3 15.3 0 0 0 4-10h8a15.3 15.3 0 0 0 4 10z" fill="#5f3894"/><path d="m51 24c-12 0-11 17-11 17h5s-1.385-10 4-10c5 0 3 5 3 5s6 0 6-6-7-6-7-6z" fill="#5f3894"/><path d="m45 45s0 5 7 4c0 0 1 4-5 4s-7-8-7-8z" fill="#5f3894"/><path d="m13 24c12 0 11 17 11 17h-5s1.385-10-4-10c-5 0-3 5-3 5s-6 0-6-6 7-6 7-6z" fill="#9362f5"/><path d="m19 45s0 5-7 4c0 0-1 4 5 4s7-8 7-8z" fill="#9362f5"/><g fill="#f4f4e6"><path d="m9 28h2v2h-2z"/><path d="m53 28h2v2h-2z"/><path d="m31 45h2v8h-2z"/><path d="m31 55h2v2h-2z"/></g><path d="m25 8c-2.375 2.083-2.329 4.53-2 7l5 26h4v-38z" fill="#5f3894"/><path d="m39 8c2.375 2.083 2.329 4.53 2 7l-5 26h-4v-38z" fill="#9362f5"/><path d="m36.991 19.142-1.981-.284.93-6.5-1.647-1.647 1.414-1.414 2 2a1 1 0 0 1 .284.849z" fill="#f4f4e6"/></svg>